<?xml version="1.0" encoding="utf-8"?>
<!-- Generator: Adobe Illustrator 16.0.0, SVG Export Plug-In . SVG Version: 6.00 Build 0)  -->
<!DOCTYPE svg PUBLIC "-//W3C//DTD SVG 1.1//EN" "http://www.w3.org/Graphics/SVG/1.1/DTD/svg11.dtd">
<svg version="1.1" id="Layer_1" xmlns="http://www.w3.org/2000/svg" xmlns:xlink="http://www.w3.org/1999/xlink" x="0px" y="0px"
	 width="841.89px" height="169.306px" viewBox="0 0 841.89 169.306" enable-background="new 0 0 841.89 169.306"
	 xml:space="preserve">
<g>
	<path d="M57.216,120.81c0,7.129-2.565,12.745-7.695,16.85s-12.268,6.156-21.413,6.156c-8.425,0-15.877-1.584-22.358-4.752V123.51
		c5.328,2.376,9.837,4.051,13.528,5.022c3.69,0.972,7.065,1.458,10.125,1.458c3.672,0,6.489-0.702,8.452-2.106
		c1.962-1.403,2.943-3.491,2.943-6.264c0-1.548-0.432-2.925-1.296-4.132c-0.864-1.206-2.133-2.367-3.808-3.483
		c-1.674-1.115-5.085-2.897-10.233-5.346c-4.825-2.269-8.443-4.446-10.855-6.535c-2.413-2.087-4.339-4.518-5.778-7.29
		c-1.44-2.772-2.16-6.012-2.16-9.721c0-6.984,2.367-12.475,7.102-16.472c4.733-3.996,11.277-5.994,19.63-5.994
		c4.104,0,8.02,0.486,11.746,1.458c3.727,0.972,7.623,2.341,11.692,4.104l-5.4,13.015c-4.212-1.728-7.695-2.934-10.45-3.618
		c-2.754-0.684-5.464-1.026-8.127-1.026c-3.168,0-5.599,0.738-7.291,2.214c-1.693,1.477-2.538,3.402-2.538,5.779
		c0,1.477,0.341,2.763,1.026,3.861c0.684,1.099,1.773,2.161,3.267,3.186c1.494,1.026,5.031,2.872,10.612,5.536
		c7.38,3.528,12.439,7.065,15.175,10.611C55.847,111.314,57.216,115.661,57.216,120.81z"/>
	<path d="M125.963,142.735h-16.472v-35.265c0-4.355-0.774-7.623-2.322-9.802c-1.548-2.178-4.015-3.268-7.399-3.268
		c-4.609,0-7.938,1.539-9.991,4.618c-2.052,3.078-3.078,8.182-3.078,15.31v28.406H70.231V82.359h12.583l2.214,7.722h0.918
		c1.836-2.916,4.365-5.121,7.587-6.615c3.222-1.494,6.886-2.241,10.99-2.241c7.021,0,12.349,1.899,15.985,5.698
		c3.636,3.799,5.455,9.28,5.455,16.444V142.735z"/>
	<path d="M138.06,169.306c-4.212,0-7.831-0.451-10.855-1.351v-12.961c2.521,0.684,5.095,1.026,7.723,1.026
		c2.772,0,4.797-0.774,6.076-2.322c1.277-1.549,1.917-3.834,1.917-6.858V82.359h16.471v66.911c0,6.408-1.854,11.35-5.562,14.824
		C150.121,167.568,144.865,169.306,138.06,169.306z M142.218,66.751c0-5.364,2.988-8.046,8.965-8.046
		c5.976,0,8.965,2.683,8.965,8.046c0,2.557-0.748,4.546-2.241,5.968c-1.495,1.422-3.736,2.133-6.724,2.133
		C145.207,74.852,142.218,72.152,142.218,66.751z"/>
	<path d="M215.016,142.735l-3.186-8.209h-0.432c-2.773,3.493-5.625,5.914-8.56,7.264c-2.935,1.351-6.76,2.025-11.476,2.025
		c-5.797,0-10.36-1.655-13.69-4.969c-3.331-3.312-4.995-8.027-4.995-14.148c0-6.408,2.241-11.134,6.723-14.177
		c4.482-3.041,11.241-4.725,20.279-5.049l10.477-0.324v-2.646c0-6.12-3.132-9.181-9.396-9.181c-4.825,0-10.496,1.458-17.011,4.375
		l-5.455-11.125c6.948-3.636,14.653-5.455,23.114-5.455c8.101,0,14.311,1.765,18.631,5.292c4.32,3.529,6.48,8.893,6.48,16.093
		v40.233H215.016z M210.155,114.762l-6.373,0.216c-4.789,0.144-8.353,1.008-10.692,2.592c-2.341,1.585-3.51,3.996-3.51,7.236
		c0,4.645,2.664,6.967,7.992,6.967c3.816,0,6.867-1.098,9.154-3.294c2.286-2.196,3.429-5.112,3.429-8.749V114.762z"/>
	<path d="M259.947,142.735h-16.471v-84.03h16.471V142.735z"/>
	<path d="M293.7,142.735h-16.471v-84.03H293.7V142.735z"/>
	<path d="M349.324,142.735l-3.186-8.209h-0.432c-2.773,3.493-5.625,5.914-8.56,7.264c-2.935,1.351-6.76,2.025-11.476,2.025
		c-5.797,0-10.36-1.655-13.69-4.969c-3.331-3.312-4.995-8.027-4.995-14.148c0-6.408,2.241-11.134,6.723-14.177
		c4.482-3.041,11.241-4.725,20.279-5.049l10.477-0.324v-2.646c0-6.12-3.132-9.181-9.396-9.181c-4.825,0-10.496,1.458-17.011,4.375
		l-5.455-11.125c6.948-3.636,14.653-5.455,23.114-5.455c8.101,0,14.311,1.765,18.631,5.292c4.32,3.529,6.48,8.893,6.48,16.093
		v40.233H349.324z M344.463,114.762l-6.373,0.216c-4.789,0.144-8.353,1.008-10.692,2.592c-2.341,1.585-3.51,3.996-3.51,7.236
		c0,4.645,2.664,6.967,7.992,6.967c3.816,0,6.867-1.098,9.154-3.294c2.286-2.196,3.429-5.112,3.429-8.749V114.762z"/>
	<path d="M411.483,81.225c2.232,0,4.085,0.162,5.562,0.486l-1.242,15.445c-1.333-0.359-2.953-0.54-4.86-0.54
		c-5.257,0-9.352,1.35-12.286,4.05c-2.935,2.7-4.401,6.48-4.401,11.341v30.729h-16.471V82.359h12.475l2.43,10.153h0.81
		c1.872-3.384,4.401-6.111,7.587-8.182C404.273,82.26,407.738,81.225,411.483,81.225z"/>
</g>
<path d="M453.076,142.728V63.776h5.509v73.768h37.64v5.184H453.076z"/>
<path d="M544.127,142.728l-1.35-9.289h-0.433c-2.952,3.78-5.986,6.454-9.1,8.02c-3.114,1.565-6.795,2.349-11.044,2.349
	c-5.761,0-10.242-1.475-13.446-4.428c-3.204-2.952-4.808-7.039-4.808-12.259c0-5.725,2.386-10.171,7.156-13.34
	c4.771-3.168,11.674-4.842,20.711-5.021l11.18-0.324v-3.889c0-5.579-1.135-9.791-3.403-12.635c-2.27-2.844-5.923-4.266-10.963-4.266
	c-5.437,0-11.071,1.512-16.904,4.536l-1.997-4.644C516.172,84.513,522.543,83,528.845,83c6.442,0,11.258,1.674,14.445,5.022
	c3.187,3.348,4.779,8.569,4.779,15.659v39.046H544.127z M522.525,138.947c6.265,0,11.205-1.79,14.825-5.373
	c3.616-3.583,5.427-8.561,5.427-14.933v-5.779l-10.261,0.433c-8.244,0.396-14.123,1.683-17.633,3.86
	c-3.51,2.18-5.265,5.573-5.265,10.182c0,3.671,1.124,6.525,3.374,8.559C515.243,137.93,518.421,138.947,522.525,138.947z"/>
<path d="M571.724,84.027v38.016c0,5.906,1.242,10.199,3.726,12.881c2.484,2.683,6.337,4.023,11.559,4.023
	c6.982,0,12.122-1.765,15.418-5.292c3.293-3.528,4.94-9.271,4.94-17.229v-32.4h5.292v58.701h-4.536l-0.973-8.102h-0.323
	c-3.815,6.122-10.603,9.181-20.359,9.181c-13.357,0-20.035-7.146-20.035-21.438V84.027H571.724z"/>
<path d="M668.715,127.443c0,5.257-1.999,9.299-5.996,12.124c-3.995,2.827-9.665,4.239-17.011,4.239
	c-7.849,0-14.076-1.205-18.686-3.618v-5.777c5.905,2.952,12.133,4.428,18.686,4.428c5.797,0,10.197-0.963,13.205-2.89
	c3.004-1.925,4.509-4.49,4.509-7.694c0-2.953-1.196-5.437-3.591-7.453c-2.396-2.017-6.328-3.996-11.801-5.94
	c-5.869-2.124-9.989-3.951-12.366-5.481c-2.376-1.53-4.168-3.258-5.374-5.185c-1.207-1.925-1.809-4.273-1.809-7.046
	c0-4.393,1.845-7.866,5.535-10.422c3.689-2.557,8.848-3.835,15.473-3.835c6.335,0,12.347,1.188,18.037,3.564l-1.997,4.86
	c-5.762-2.376-11.108-3.564-16.04-3.564c-4.789,0-8.587,0.792-11.396,2.376c-2.809,1.586-4.212,3.78-4.212,6.589
	c0,3.061,1.088,5.509,3.267,7.344c2.179,1.836,6.435,3.889,12.771,6.156c5.294,1.909,9.146,3.628,11.559,5.158
	c2.41,1.53,4.22,3.267,5.427,5.211C668.111,122.53,668.715,124.816,668.715,127.443z"/>
<path d="M724.77,142.728v-38.073c0-5.903-1.24-10.196-3.725-12.878c-2.485-2.682-6.337-4.024-11.558-4.024
	c-7.02,0-12.16,1.774-15.418,5.319c-3.259,3.547-4.887,9.299-4.887,17.253v32.403h-5.348V84.027h4.536l1.026,8.045h0.324
	c3.816-6.12,10.603-9.18,20.36-9.18c13.319,0,19.981,7.148,19.981,21.439v38.396H724.77z"/>
<path d="M833.367,82.892c2.485,0,5.15,0.252,7.994,0.756l-1.026,5.13c-2.449-0.611-4.988-0.918-7.615-0.918
	c-5.003,0-9.108,2.124-12.312,6.372c-3.204,4.249-4.806,9.611-4.806,16.092v32.403h-5.347V84.027h4.536l0.539,10.584h0.379
	c2.412-4.321,4.986-7.353,7.722-9.1C826.168,83.766,829.48,82.892,833.367,82.892z"/>
<g>
	<path d="M756.449,106.973L756.449,106.973C756.448,107.038,756.448,107.085,756.449,106.973z"/>
	<path d="M756.448,106.973L756.448,106.973C756.449,106.76,756.448,106.882,756.448,106.973z"/>
	<g>
		<path d="M810.841,27.973c-2.187-5.001-5.286-9.39-9.035-13.351c-4.783-5.051-10.36-8.896-16.847-11.427
			c-6.57-2.561-13.363-3.587-20.398-3.062c-5.033,0.377-9.88,1.538-14.524,3.494c-7.195,3.032-13.196,7.677-18.135,13.697
			c-2.752,3.357-5.034,6.998-6.762,11.01c-1.837,4.271-2.894,8.706-3.218,13.312c-0.341,4.871,0.25,9.668,1.542,14.368
			c1.979,7.205,5.457,13.665,9.904,19.632c1.986,2.663,4.006,5.307,5.914,8.028c1.942,2.774,3.429,5.818,4.452,9.04
			c1.263,3.978,1.901,8.072,1.828,12.268c-0.006,0.327,0.019,0.65,0.063,0.966c0.146,0.976,0.526,1.897,1.084,2.758
			c1.061,1.635,2.588,2.611,4.436,3.191c0,0.323,0,0.615,0,0.907c0,6.612,0.011,13.224-0.009,19.835
			c-0.004,1.057,0.375,1.826,1.282,2.374c1.274,0.771,2.52,1.595,3.792,2.37c2.291,1.398,4.517,2.93,6.905,4.133
			c4.024,2.027,7.985,1.364,11.718-0.897c2.964-1.795,5.845-3.729,8.79-5.56c0.898-0.561,1.332-1.248,1.327-2.329
			c-0.027-6.636-0.015-13.271-0.015-19.907c0-0.291,0-0.584,0-0.906c3.382-1.081,5.156-3.218,5.538-6.46
			c0.039-0.333,0.078-0.667,0.089-1.024c0.044-1.704,0.18-3.413,0.376-5.108c0.65-5.61,2.643-10.746,5.746-15.431
			c1.645-2.483,3.443-4.87,5.264-7.229c2.89-3.748,5.424-7.702,7.456-11.984c2.72-5.729,4.403-11.719,4.788-18.064
			C814.585,40.125,813.439,33.913,810.841,27.973z M773.967,136.306c-3.938,0.013-7.876,0.011-11.813,0.005
			c-0.215,0-0.467,0.008-0.638-0.094c-1.038-0.627-2.058-1.282-3.084-1.929c0.019-0.062,0.036-0.124,0.055-0.186
			c7.278-0.551,14.557-1.104,22.02-1.67c-0.275,0.208-0.42,0.333-0.58,0.435c-1.707,1.086-3.411,2.177-5.131,3.242
			C774.564,136.251,774.245,136.306,773.967,136.306z M754.979,124.044c0-1.451-0.018-2.769,0.021-4.086
			c0.004-0.167,0.279-0.457,0.448-0.472c3.165-0.272,6.332-0.516,9.501-0.76c3.657-0.28,7.313-0.558,10.971-0.832
			c1.699-0.129,3.399-0.253,5.147-0.381c0,1.509,0,2.941,0,4.49C772.407,122.681,763.746,123.356,754.979,124.044z M781.066,124.939
			c0,1.5,0,2.96,0,4.503c-8.653,0.68-17.315,1.361-26.037,2.045c0-1.538,0-2.994,0-4.552L781.066,124.939z M781.084,114.571
			c-8.688,0.672-17.333,1.34-26.127,2.02c0-1.479-0.009-2.821,0.016-4.16c0.003-0.122,0.21-0.285,0.355-0.345
			c0.147-0.061,0.338-0.019,0.509-0.019c1.46,0,2.919,0,4.378,0c4.973,0,9.945,0.001,14.917,0.001c1.746,0,3.491,0,5.239,0
			c0.215,0,0.431,0.019,0.713,0.033C781.084,112.923,781.084,113.711,781.084,114.571z M809.236,45.244
			c-0.145,5.471-1.477,10.655-3.621,15.665c-2.162,5.052-5.216,9.536-8.526,13.891c-2.229,2.931-4.374,5.953-6.273,9.106
			c-2.37,3.933-3.957,8.229-4.556,12.812c-0.354,2.711-0.51,5.448-0.728,8.173c-0.088,1.089-0.864,2.028-1.91,2.069
			c-1.293,0.053-2.591,0.012-3.989,0.012l-23.184,0.002c-0.001,0.112-0.001,0.065-0.001,0c-1.394,0-2.688,0.051-3.979-0.016
			c-1.144-0.058-1.845-1.072-1.936-2.377c-0.188-2.752-0.28-5.528-0.713-8.247c-0.764-4.796-2.566-9.242-5.053-13.417
			c-2.196-3.691-4.889-7.017-7.469-10.428c-3.067-4.053-5.599-8.415-7.456-13.154c-2.047-5.22-3.132-10.618-2.945-16.246
			c0.174-5.233,1.473-10.169,3.829-14.842c1.944-3.854,4.485-7.264,7.452-10.387c4.475-4.71,9.762-8.182,15.853-10.393
			c5.322-1.931,10.827-2.675,16.497-2.352c6.026,0.347,11.68,1.952,16.985,4.778c4.805,2.557,8.895,6.002,12.405,10.167
			c3.006,3.564,5.434,7.459,7.07,11.83C808.604,36.191,809.359,40.64,809.236,45.244z"/>
	</g>
	<path d="M764.192,68.798c0-3.456,1.134-5.184,3.403-5.184c1.114,0,1.987,0.45,2.619,1.35c0.629,0.9,0.943,2.178,0.943,3.833
		c0,1.621-0.314,2.899-0.943,3.835c-0.632,0.937-1.505,1.404-2.619,1.404C765.326,74.037,764.192,72.291,764.192,68.798z
		 M770.296,107.663h-5.348V85.106h5.348V107.663z"/>
</g>
</svg>
